<mxfile host="app.diagrams.net" modified="2024-03-09T19:42:23.517Z" agent="Mozilla/5.0 (Windows NT 10.0; Win64; x64; rv:123.0) Gecko/20100101 Firefox/123.0" etag="e0V3ZLRlNvq_CVJL2GEu" version="24.0.2" type="github">
  <diagram name="第 1 页" id="0bD3lU0_Pifh6ExXDQBx">
    <mxGraphModel dx="478" dy="447" grid="1" gridSize="10" guides="1" tooltips="1" connect="1" arrows="1" fold="1" page="1" pageScale="1" pageWidth="827" pageHeight="1169" math="0" shadow="0">
      <root>
        <mxCell id="0" />
        <mxCell id="1" parent="0" />
        <mxCell id="EDMrqdcetq08YhEvp83--6" value="&lt;div&gt;Friend &lt;br&gt;&lt;/div&gt;&lt;div&gt;Appointment&lt;br&gt;&lt;/div&gt;" style="edgeStyle=orthogonalEdgeStyle;rounded=0;orthogonalLoop=1;jettySize=auto;html=1;exitX=0;exitY=0.028;exitDx=0;exitDy=0;exitPerimeter=0;" edge="1" parent="1" source="EDMrqdcetq08YhEvp83--1">
          <mxGeometry relative="1" as="geometry">
            <mxPoint x="40" y="80" as="targetPoint" />
          </mxGeometry>
        </mxCell>
        <mxCell id="EDMrqdcetq08YhEvp83--1" value="Patient" style="swimlane;fontStyle=0;align=center;verticalAlign=top;childLayout=stackLayout;horizontal=1;startSize=26;horizontalStack=0;resizeParent=1;resizeLast=0;collapsible=1;marginBottom=0;rounded=0;shadow=0;strokeWidth=1;" vertex="1" parent="1">
          <mxGeometry x="170" y="70" width="460" height="1672" as="geometry">
            <mxRectangle x="550" y="140" width="160" height="26" as="alternateBounds" />
          </mxGeometry>
        </mxCell>
        <mxCell id="EDMrqdcetq08YhEvp83--2" value="- id : int" style="text;align=left;verticalAlign=top;spacingLeft=4;spacingRight=4;overflow=hidden;rotatable=0;points=[[0,0.5],[1,0.5]];portConstraint=eastwest;" vertex="1" parent="EDMrqdcetq08YhEvp83--1">
          <mxGeometry y="26" width="460" height="26" as="geometry" />
        </mxCell>
        <mxCell id="EDMrqdcetq08YhEvp83--18" value="- name : string" style="text;align=left;verticalAlign=top;spacingLeft=4;spacingRight=4;overflow=hidden;rotatable=0;points=[[0,0.5],[1,0.5]];portConstraint=eastwest;" vertex="1" parent="EDMrqdcetq08YhEvp83--1">
          <mxGeometry y="52" width="460" height="26" as="geometry" />
        </mxCell>
        <mxCell id="EDMrqdcetq08YhEvp83--17" value="- age : int" style="text;align=left;verticalAlign=top;spacingLeft=4;spacingRight=4;overflow=hidden;rotatable=0;points=[[0,0.5],[1,0.5]];portConstraint=eastwest;" vertex="1" parent="EDMrqdcetq08YhEvp83--1">
          <mxGeometry y="78" width="460" height="26" as="geometry" />
        </mxCell>
        <mxCell id="EDMrqdcetq08YhEvp83--16" value="- gender : char" style="text;align=left;verticalAlign=top;spacingLeft=4;spacingRight=4;overflow=hidden;rotatable=0;points=[[0,0.5],[1,0.5]];portConstraint=eastwest;" vertex="1" parent="EDMrqdcetq08YhEvp83--1">
          <mxGeometry y="104" width="460" height="26" as="geometry" />
        </mxCell>
        <mxCell id="EDMrqdcetq08YhEvp83--15" value="- insurer : string" style="text;align=left;verticalAlign=top;spacingLeft=4;spacingRight=4;overflow=hidden;rotatable=0;points=[[0,0.5],[1,0.5]];portConstraint=eastwest;" vertex="1" parent="EDMrqdcetq08YhEvp83--1">
          <mxGeometry y="130" width="460" height="26" as="geometry" />
        </mxCell>
        <mxCell id="EDMrqdcetq08YhEvp83--14" value="- insuranceNum : string" style="text;align=left;verticalAlign=top;spacingLeft=4;spacingRight=4;overflow=hidden;rotatable=0;points=[[0,0.5],[1,0.5]];portConstraint=eastwest;" vertex="1" parent="EDMrqdcetq08YhEvp83--1">
          <mxGeometry y="156" width="460" height="26" as="geometry" />
        </mxCell>
        <mxCell id="EDMrqdcetq08YhEvp83--13" value="- medicalProcedures : vector&lt;string&gt;" style="text;align=left;verticalAlign=top;spacingLeft=4;spacingRight=4;overflow=hidden;rotatable=0;points=[[0,0.5],[1,0.5]];portConstraint=eastwest;" vertex="1" parent="EDMrqdcetq08YhEvp83--1">
          <mxGeometry y="182" width="460" height="26" as="geometry" />
        </mxCell>
        <mxCell id="EDMrqdcetq08YhEvp83--23" value="- flag_urgency : bool" style="text;align=left;verticalAlign=top;spacingLeft=4;spacingRight=4;overflow=hidden;rotatable=0;points=[[0,0.5],[1,0.5]];portConstraint=eastwest;" vertex="1" parent="EDMrqdcetq08YhEvp83--1">
          <mxGeometry y="208" width="460" height="26" as="geometry" />
        </mxCell>
        <mxCell id="EDMrqdcetq08YhEvp83--22" value="- hp : int" style="text;align=left;verticalAlign=top;spacingLeft=4;spacingRight=4;overflow=hidden;rotatable=0;points=[[0,0.5],[1,0.5]];portConstraint=eastwest;" vertex="1" parent="EDMrqdcetq08YhEvp83--1">
          <mxGeometry y="234" width="460" height="26" as="geometry" />
        </mxCell>
        <mxCell id="EDMrqdcetq08YhEvp83--21" value="- san : int" style="text;align=left;verticalAlign=top;spacingLeft=4;spacingRight=4;overflow=hidden;rotatable=0;points=[[0,0.5],[1,0.5]];portConstraint=eastwest;" vertex="1" parent="EDMrqdcetq08YhEvp83--1">
          <mxGeometry y="260" width="460" height="26" as="geometry" />
        </mxCell>
        <mxCell id="EDMrqdcetq08YhEvp83--20" value="- dept : string" style="text;align=left;verticalAlign=top;spacingLeft=4;spacingRight=4;overflow=hidden;rotatable=0;points=[[0,0.5],[1,0.5]];portConstraint=eastwest;" vertex="1" parent="EDMrqdcetq08YhEvp83--1">
          <mxGeometry y="286" width="460" height="26" as="geometry" />
        </mxCell>
        <mxCell id="EDMrqdcetq08YhEvp83--19" value="- is_inpatient : bool" style="text;align=left;verticalAlign=top;spacingLeft=4;spacingRight=4;overflow=hidden;rotatable=0;points=[[0,0.5],[1,0.5]];portConstraint=eastwest;" vertex="1" parent="EDMrqdcetq08YhEvp83--1">
          <mxGeometry y="312" width="460" height="26" as="geometry" />
        </mxCell>
        <mxCell id="EDMrqdcetq08YhEvp83--26" value="- is_outpatient : bool" style="text;align=left;verticalAlign=top;spacingLeft=4;spacingRight=4;overflow=hidden;rotatable=0;points=[[0,0.5],[1,0.5]];portConstraint=eastwest;" vertex="1" parent="EDMrqdcetq08YhEvp83--1">
          <mxGeometry y="338" width="460" height="26" as="geometry" />
        </mxCell>
        <mxCell id="EDMrqdcetq08YhEvp83--25" value="- initialStep : Appointment*" style="text;align=left;verticalAlign=top;spacingLeft=4;spacingRight=4;overflow=hidden;rotatable=0;points=[[0,0.5],[1,0.5]];portConstraint=eastwest;" vertex="1" parent="EDMrqdcetq08YhEvp83--1">
          <mxGeometry y="364" width="460" height="26" as="geometry" />
        </mxCell>
        <mxCell id="EDMrqdcetq08YhEvp83--24" value="- nextStep :Appointment*" style="text;align=left;verticalAlign=top;spacingLeft=4;spacingRight=4;overflow=hidden;rotatable=0;points=[[0,0.5],[1,0.5]];portConstraint=eastwest;" vertex="1" parent="EDMrqdcetq08YhEvp83--1">
          <mxGeometry y="390" width="460" height="26" as="geometry" />
        </mxCell>
        <mxCell id="EDMrqdcetq08YhEvp83--28" value="- totalExpenseByCents : int" style="text;align=left;verticalAlign=top;spacingLeft=4;spacingRight=4;overflow=hidden;rotatable=0;points=[[0,0.5],[1,0.5]];portConstraint=eastwest;" vertex="1" parent="EDMrqdcetq08YhEvp83--1">
          <mxGeometry y="416" width="460" height="26" as="geometry" />
        </mxCell>
        <mxCell id="EDMrqdcetq08YhEvp83--3" value="" style="line;html=1;strokeWidth=1;align=left;verticalAlign=middle;spacingTop=-1;spacingLeft=3;spacingRight=3;rotatable=0;labelPosition=right;points=[];portConstraint=eastwest;" vertex="1" parent="EDMrqdcetq08YhEvp83--1">
          <mxGeometry y="442" width="460" height="8" as="geometry" />
        </mxCell>
        <mxCell id="EDMrqdcetq08YhEvp83--4" value="+&lt;&lt;constructor&gt;&gt; Patient (id : int, name : string, age : int, gender : char)" style="text;align=left;verticalAlign=top;spacingLeft=4;spacingRight=4;overflow=hidden;rotatable=0;points=[[0,0.5],[1,0.5]];portConstraint=eastwest;" vertex="1" parent="EDMrqdcetq08YhEvp83--1">
          <mxGeometry y="450" width="460" height="26" as="geometry" />
        </mxCell>
        <mxCell id="EDMrqdcetq08YhEvp83--7" value="+ getID() : int" style="text;align=left;verticalAlign=top;spacingLeft=4;spacingRight=4;overflow=hidden;rotatable=0;points=[[0,0.5],[1,0.5]];portConstraint=eastwest;" vertex="1" parent="EDMrqdcetq08YhEvp83--1">
          <mxGeometry y="476" width="460" height="26" as="geometry" />
        </mxCell>
        <mxCell id="EDMrqdcetq08YhEvp83--8" value="+ getName() : string" style="text;align=left;verticalAlign=top;spacingLeft=4;spacingRight=4;overflow=hidden;rotatable=0;points=[[0,0.5],[1,0.5]];portConstraint=eastwest;" vertex="1" parent="EDMrqdcetq08YhEvp83--1">
          <mxGeometry y="502" width="460" height="26" as="geometry" />
        </mxCell>
        <mxCell id="EDMrqdcetq08YhEvp83--9" value="+ getAge() : int" style="text;align=left;verticalAlign=top;spacingLeft=4;spacingRight=4;overflow=hidden;rotatable=0;points=[[0,0.5],[1,0.5]];portConstraint=eastwest;" vertex="1" parent="EDMrqdcetq08YhEvp83--1">
          <mxGeometry y="528" width="460" height="26" as="geometry" />
        </mxCell>
        <mxCell id="EDMrqdcetq08YhEvp83--43" value="+ getGender() : char" style="text;align=left;verticalAlign=top;spacingLeft=4;spacingRight=4;overflow=hidden;rotatable=0;points=[[0,0.5],[1,0.5]];portConstraint=eastwest;" vertex="1" parent="EDMrqdcetq08YhEvp83--1">
          <mxGeometry y="554" width="460" height="26" as="geometry" />
        </mxCell>
        <mxCell id="EDMrqdcetq08YhEvp83--42" value="+ getInsurer() : string" style="text;align=left;verticalAlign=top;spacingLeft=4;spacingRight=4;overflow=hidden;rotatable=0;points=[[0,0.5],[1,0.5]];portConstraint=eastwest;" vertex="1" parent="EDMrqdcetq08YhEvp83--1">
          <mxGeometry y="580" width="460" height="26" as="geometry" />
        </mxCell>
        <mxCell id="EDMrqdcetq08YhEvp83--41" value="+ getInsuranceNum() : string" style="text;align=left;verticalAlign=top;spacingLeft=4;spacingRight=4;overflow=hidden;rotatable=0;points=[[0,0.5],[1,0.5]];portConstraint=eastwest;" vertex="1" parent="EDMrqdcetq08YhEvp83--1">
          <mxGeometry y="606" width="460" height="26" as="geometry" />
        </mxCell>
        <mxCell id="EDMrqdcetq08YhEvp83--40" value="+ getHp() : int" style="text;align=left;verticalAlign=top;spacingLeft=4;spacingRight=4;overflow=hidden;rotatable=0;points=[[0,0.5],[1,0.5]];portConstraint=eastwest;" vertex="1" parent="EDMrqdcetq08YhEvp83--1">
          <mxGeometry y="632" width="460" height="26" as="geometry" />
        </mxCell>
        <mxCell id="EDMrqdcetq08YhEvp83--39" value="+ getSan() : int" style="text;align=left;verticalAlign=top;spacingLeft=4;spacingRight=4;overflow=hidden;rotatable=0;points=[[0,0.5],[1,0.5]];portConstraint=eastwest;" vertex="1" parent="EDMrqdcetq08YhEvp83--1">
          <mxGeometry y="658" width="460" height="26" as="geometry" />
        </mxCell>
        <mxCell id="EDMrqdcetq08YhEvp83--38" value="+ getDept() : string" style="text;align=left;verticalAlign=top;spacingLeft=4;spacingRight=4;overflow=hidden;rotatable=0;points=[[0,0.5],[1,0.5]];portConstraint=eastwest;" vertex="1" parent="EDMrqdcetq08YhEvp83--1">
          <mxGeometry y="684" width="460" height="26" as="geometry" />
        </mxCell>
        <mxCell id="EDMrqdcetq08YhEvp83--37" value="+ getUrgency() : bool" style="text;align=left;verticalAlign=top;spacingLeft=4;spacingRight=4;overflow=hidden;rotatable=0;points=[[0,0.5],[1,0.5]];portConstraint=eastwest;" vertex="1" parent="EDMrqdcetq08YhEvp83--1">
          <mxGeometry y="710" width="460" height="26" as="geometry" />
        </mxCell>
        <mxCell id="EDMrqdcetq08YhEvp83--36" value="+ getStatusInpatient() : bool" style="text;align=left;verticalAlign=top;spacingLeft=4;spacingRight=4;overflow=hidden;rotatable=0;points=[[0,0.5],[1,0.5]];portConstraint=eastwest;" vertex="1" parent="EDMrqdcetq08YhEvp83--1">
          <mxGeometry y="736" width="460" height="26" as="geometry" />
        </mxCell>
        <mxCell id="EDMrqdcetq08YhEvp83--35" value="+ getStatusOutpatient() : bool" style="text;align=left;verticalAlign=top;spacingLeft=4;spacingRight=4;overflow=hidden;rotatable=0;points=[[0,0.5],[1,0.5]];portConstraint=eastwest;" vertex="1" parent="EDMrqdcetq08YhEvp83--1">
          <mxGeometry y="762" width="460" height="26" as="geometry" />
        </mxCell>
        <mxCell id="EDMrqdcetq08YhEvp83--34" value="+ getInitStep() : Appointment*" style="text;align=left;verticalAlign=top;spacingLeft=4;spacingRight=4;overflow=hidden;rotatable=0;points=[[0,0.5],[1,0.5]];portConstraint=eastwest;" vertex="1" parent="EDMrqdcetq08YhEvp83--1">
          <mxGeometry y="788" width="460" height="26" as="geometry" />
        </mxCell>
        <mxCell id="EDMrqdcetq08YhEvp83--33" value="+ getNextStep() : Appointment*" style="text;align=left;verticalAlign=top;spacingLeft=4;spacingRight=4;overflow=hidden;rotatable=0;points=[[0,0.5],[1,0.5]];portConstraint=eastwest;" vertex="1" parent="EDMrqdcetq08YhEvp83--1">
          <mxGeometry y="814" width="460" height="26" as="geometry" />
        </mxCell>
        <mxCell id="EDMrqdcetq08YhEvp83--32" value="+ getTotalInCents() : int" style="text;align=left;verticalAlign=top;spacingLeft=4;spacingRight=4;overflow=hidden;rotatable=0;points=[[0,0.5],[1,0.5]];portConstraint=eastwest;" vertex="1" parent="EDMrqdcetq08YhEvp83--1">
          <mxGeometry y="840" width="460" height="26" as="geometry" />
        </mxCell>
        <mxCell id="EDMrqdcetq08YhEvp83--31" value="+ setID(int i) : Patient*" style="text;align=left;verticalAlign=top;spacingLeft=4;spacingRight=4;overflow=hidden;rotatable=0;points=[[0,0.5],[1,0.5]];portConstraint=eastwest;" vertex="1" parent="EDMrqdcetq08YhEvp83--1">
          <mxGeometry y="866" width="460" height="26" as="geometry" />
        </mxCell>
        <mxCell id="EDMrqdcetq08YhEvp83--68" value="+ setName(string n) : Patient*" style="text;align=left;verticalAlign=top;spacingLeft=4;spacingRight=4;overflow=hidden;rotatable=0;points=[[0,0.5],[1,0.5]];portConstraint=eastwest;" vertex="1" parent="EDMrqdcetq08YhEvp83--1">
          <mxGeometry y="892" width="460" height="26" as="geometry" />
        </mxCell>
        <mxCell id="EDMrqdcetq08YhEvp83--67" style="text;align=left;verticalAlign=top;spacingLeft=4;spacingRight=4;overflow=hidden;rotatable=0;points=[[0,0.5],[1,0.5]];portConstraint=eastwest;" vertex="1" parent="EDMrqdcetq08YhEvp83--1">
          <mxGeometry y="918" width="460" height="26" as="geometry" />
        </mxCell>
        <mxCell id="EDMrqdcetq08YhEvp83--66" style="text;align=left;verticalAlign=top;spacingLeft=4;spacingRight=4;overflow=hidden;rotatable=0;points=[[0,0.5],[1,0.5]];portConstraint=eastwest;" vertex="1" parent="EDMrqdcetq08YhEvp83--1">
          <mxGeometry y="944" width="460" height="26" as="geometry" />
        </mxCell>
        <mxCell id="EDMrqdcetq08YhEvp83--65" style="text;align=left;verticalAlign=top;spacingLeft=4;spacingRight=4;overflow=hidden;rotatable=0;points=[[0,0.5],[1,0.5]];portConstraint=eastwest;" vertex="1" parent="EDMrqdcetq08YhEvp83--1">
          <mxGeometry y="970" width="460" height="26" as="geometry" />
        </mxCell>
        <mxCell id="EDMrqdcetq08YhEvp83--64" style="text;align=left;verticalAlign=top;spacingLeft=4;spacingRight=4;overflow=hidden;rotatable=0;points=[[0,0.5],[1,0.5]];portConstraint=eastwest;" vertex="1" parent="EDMrqdcetq08YhEvp83--1">
          <mxGeometry y="996" width="460" height="26" as="geometry" />
        </mxCell>
        <mxCell id="EDMrqdcetq08YhEvp83--63" style="text;align=left;verticalAlign=top;spacingLeft=4;spacingRight=4;overflow=hidden;rotatable=0;points=[[0,0.5],[1,0.5]];portConstraint=eastwest;" vertex="1" parent="EDMrqdcetq08YhEvp83--1">
          <mxGeometry y="1022" width="460" height="26" as="geometry" />
        </mxCell>
        <mxCell id="EDMrqdcetq08YhEvp83--62" style="text;align=left;verticalAlign=top;spacingLeft=4;spacingRight=4;overflow=hidden;rotatable=0;points=[[0,0.5],[1,0.5]];portConstraint=eastwest;" vertex="1" parent="EDMrqdcetq08YhEvp83--1">
          <mxGeometry y="1048" width="460" height="26" as="geometry" />
        </mxCell>
        <mxCell id="EDMrqdcetq08YhEvp83--61" style="text;align=left;verticalAlign=top;spacingLeft=4;spacingRight=4;overflow=hidden;rotatable=0;points=[[0,0.5],[1,0.5]];portConstraint=eastwest;" vertex="1" parent="EDMrqdcetq08YhEvp83--1">
          <mxGeometry y="1074" width="460" height="26" as="geometry" />
        </mxCell>
        <mxCell id="EDMrqdcetq08YhEvp83--60" style="text;align=left;verticalAlign=top;spacingLeft=4;spacingRight=4;overflow=hidden;rotatable=0;points=[[0,0.5],[1,0.5]];portConstraint=eastwest;" vertex="1" parent="EDMrqdcetq08YhEvp83--1">
          <mxGeometry y="1100" width="460" height="26" as="geometry" />
        </mxCell>
        <mxCell id="EDMrqdcetq08YhEvp83--59" style="text;align=left;verticalAlign=top;spacingLeft=4;spacingRight=4;overflow=hidden;rotatable=0;points=[[0,0.5],[1,0.5]];portConstraint=eastwest;" vertex="1" parent="EDMrqdcetq08YhEvp83--1">
          <mxGeometry y="1126" width="460" height="26" as="geometry" />
        </mxCell>
        <mxCell id="EDMrqdcetq08YhEvp83--58" style="text;align=left;verticalAlign=top;spacingLeft=4;spacingRight=4;overflow=hidden;rotatable=0;points=[[0,0.5],[1,0.5]];portConstraint=eastwest;" vertex="1" parent="EDMrqdcetq08YhEvp83--1">
          <mxGeometry y="1152" width="460" height="26" as="geometry" />
        </mxCell>
        <mxCell id="EDMrqdcetq08YhEvp83--57" style="text;align=left;verticalAlign=top;spacingLeft=4;spacingRight=4;overflow=hidden;rotatable=0;points=[[0,0.5],[1,0.5]];portConstraint=eastwest;" vertex="1" parent="EDMrqdcetq08YhEvp83--1">
          <mxGeometry y="1178" width="460" height="26" as="geometry" />
        </mxCell>
        <mxCell id="EDMrqdcetq08YhEvp83--56" style="text;align=left;verticalAlign=top;spacingLeft=4;spacingRight=4;overflow=hidden;rotatable=0;points=[[0,0.5],[1,0.5]];portConstraint=eastwest;" vertex="1" parent="EDMrqdcetq08YhEvp83--1">
          <mxGeometry y="1204" width="460" height="26" as="geometry" />
        </mxCell>
        <mxCell id="EDMrqdcetq08YhEvp83--55" style="text;align=left;verticalAlign=top;spacingLeft=4;spacingRight=4;overflow=hidden;rotatable=0;points=[[0,0.5],[1,0.5]];portConstraint=eastwest;" vertex="1" parent="EDMrqdcetq08YhEvp83--1">
          <mxGeometry y="1230" width="460" height="26" as="geometry" />
        </mxCell>
        <mxCell id="EDMrqdcetq08YhEvp83--54" style="text;align=left;verticalAlign=top;spacingLeft=4;spacingRight=4;overflow=hidden;rotatable=0;points=[[0,0.5],[1,0.5]];portConstraint=eastwest;" vertex="1" parent="EDMrqdcetq08YhEvp83--1">
          <mxGeometry y="1256" width="460" height="26" as="geometry" />
        </mxCell>
        <mxCell id="EDMrqdcetq08YhEvp83--53" style="text;align=left;verticalAlign=top;spacingLeft=4;spacingRight=4;overflow=hidden;rotatable=0;points=[[0,0.5],[1,0.5]];portConstraint=eastwest;" vertex="1" parent="EDMrqdcetq08YhEvp83--1">
          <mxGeometry y="1282" width="460" height="26" as="geometry" />
        </mxCell>
        <mxCell id="EDMrqdcetq08YhEvp83--52" style="text;align=left;verticalAlign=top;spacingLeft=4;spacingRight=4;overflow=hidden;rotatable=0;points=[[0,0.5],[1,0.5]];portConstraint=eastwest;" vertex="1" parent="EDMrqdcetq08YhEvp83--1">
          <mxGeometry y="1308" width="460" height="26" as="geometry" />
        </mxCell>
        <mxCell id="EDMrqdcetq08YhEvp83--51" style="text;align=left;verticalAlign=top;spacingLeft=4;spacingRight=4;overflow=hidden;rotatable=0;points=[[0,0.5],[1,0.5]];portConstraint=eastwest;" vertex="1" parent="EDMrqdcetq08YhEvp83--1">
          <mxGeometry y="1334" width="460" height="26" as="geometry" />
        </mxCell>
        <mxCell id="EDMrqdcetq08YhEvp83--50" style="text;align=left;verticalAlign=top;spacingLeft=4;spacingRight=4;overflow=hidden;rotatable=0;points=[[0,0.5],[1,0.5]];portConstraint=eastwest;" vertex="1" parent="EDMrqdcetq08YhEvp83--1">
          <mxGeometry y="1360" width="460" height="26" as="geometry" />
        </mxCell>
        <mxCell id="EDMrqdcetq08YhEvp83--49" style="text;align=left;verticalAlign=top;spacingLeft=4;spacingRight=4;overflow=hidden;rotatable=0;points=[[0,0.5],[1,0.5]];portConstraint=eastwest;" vertex="1" parent="EDMrqdcetq08YhEvp83--1">
          <mxGeometry y="1386" width="460" height="26" as="geometry" />
        </mxCell>
        <mxCell id="EDMrqdcetq08YhEvp83--48" style="text;align=left;verticalAlign=top;spacingLeft=4;spacingRight=4;overflow=hidden;rotatable=0;points=[[0,0.5],[1,0.5]];portConstraint=eastwest;" vertex="1" parent="EDMrqdcetq08YhEvp83--1">
          <mxGeometry y="1412" width="460" height="26" as="geometry" />
        </mxCell>
        <mxCell id="EDMrqdcetq08YhEvp83--47" style="text;align=left;verticalAlign=top;spacingLeft=4;spacingRight=4;overflow=hidden;rotatable=0;points=[[0,0.5],[1,0.5]];portConstraint=eastwest;" vertex="1" parent="EDMrqdcetq08YhEvp83--1">
          <mxGeometry y="1438" width="460" height="26" as="geometry" />
        </mxCell>
        <mxCell id="EDMrqdcetq08YhEvp83--46" style="text;align=left;verticalAlign=top;spacingLeft=4;spacingRight=4;overflow=hidden;rotatable=0;points=[[0,0.5],[1,0.5]];portConstraint=eastwest;" vertex="1" parent="EDMrqdcetq08YhEvp83--1">
          <mxGeometry y="1464" width="460" height="26" as="geometry" />
        </mxCell>
        <mxCell id="EDMrqdcetq08YhEvp83--45" style="text;align=left;verticalAlign=top;spacingLeft=4;spacingRight=4;overflow=hidden;rotatable=0;points=[[0,0.5],[1,0.5]];portConstraint=eastwest;" vertex="1" parent="EDMrqdcetq08YhEvp83--1">
          <mxGeometry y="1490" width="460" height="26" as="geometry" />
        </mxCell>
        <mxCell id="EDMrqdcetq08YhEvp83--44" style="text;align=left;verticalAlign=top;spacingLeft=4;spacingRight=4;overflow=hidden;rotatable=0;points=[[0,0.5],[1,0.5]];portConstraint=eastwest;" vertex="1" parent="EDMrqdcetq08YhEvp83--1">
          <mxGeometry y="1516" width="460" height="26" as="geometry" />
        </mxCell>
        <mxCell id="EDMrqdcetq08YhEvp83--30" style="text;align=left;verticalAlign=top;spacingLeft=4;spacingRight=4;overflow=hidden;rotatable=0;points=[[0,0.5],[1,0.5]];portConstraint=eastwest;" vertex="1" parent="EDMrqdcetq08YhEvp83--1">
          <mxGeometry y="1542" width="460" height="26" as="geometry" />
        </mxCell>
        <mxCell id="EDMrqdcetq08YhEvp83--29" style="text;align=left;verticalAlign=top;spacingLeft=4;spacingRight=4;overflow=hidden;rotatable=0;points=[[0,0.5],[1,0.5]];portConstraint=eastwest;" vertex="1" parent="EDMrqdcetq08YhEvp83--1">
          <mxGeometry y="1568" width="460" height="26" as="geometry" />
        </mxCell>
        <mxCell id="EDMrqdcetq08YhEvp83--10" style="text;align=left;verticalAlign=top;spacingLeft=4;spacingRight=4;overflow=hidden;rotatable=0;points=[[0,0.5],[1,0.5]];portConstraint=eastwest;" vertex="1" parent="EDMrqdcetq08YhEvp83--1">
          <mxGeometry y="1594" width="460" height="26" as="geometry" />
        </mxCell>
        <mxCell id="EDMrqdcetq08YhEvp83--11" style="text;align=left;verticalAlign=top;spacingLeft=4;spacingRight=4;overflow=hidden;rotatable=0;points=[[0,0.5],[1,0.5]];portConstraint=eastwest;" vertex="1" parent="EDMrqdcetq08YhEvp83--1">
          <mxGeometry y="1620" width="460" height="26" as="geometry" />
        </mxCell>
        <mxCell id="EDMrqdcetq08YhEvp83--12" style="text;align=left;verticalAlign=top;spacingLeft=4;spacingRight=4;overflow=hidden;rotatable=0;points=[[0,0.5],[1,0.5]];portConstraint=eastwest;" vertex="1" parent="EDMrqdcetq08YhEvp83--1">
          <mxGeometry y="1646" width="460" height="26" as="geometry" />
        </mxCell>
      </root>
    </mxGraphModel>
  </diagram>
</mxfile>
